<svg width="512" height="512" viewBox="0 0 512 512" fill="none" xmlns="http://www.w3.org/2000/svg">
<path d="M149.391 302.137C133.001 272.188 116.628 257.22 83.8675 257.22C70.1219 257.22 57.3576 261.102 46.817 267.729C19.6139 234.138 3.00391 198.746 3.00391 156.816C3.00391 92.883 59.7321 41.0039 129.662 41.0039C193 41.0039 224.661 69.9527 256.339 127.867C287.999 69.9527 319.66 41.0039 382.998 41.0039C453.082 41.0039 509.809 92.883 509.809 156.816C509.809 272.629 382.998 338.577 256.337 454.406C242.015 441.305 227.708 428.864 213.575 416.915C251.881 384.983 280.474 356.679 280.474 317.12C280.474 284.052 251.134 257.22 214.898 257.22C182.138 257.22 165.765 272.188 149.391 302.137Z" fill="#EF3E5C"/>
<path d="M30.9658 176.948C30.9658 113.015 87.694 61.1354 157.624 61.1354C181.6 61.1354 201.03 65.2913 217.647 73.5895C195.34 51.8745 168.442 41 129.658 41C59.7265 41 3 92.8791 3 156.812C3 198.742 19.61 234.134 46.8131 267.725C49.9198 265.772 53.2402 264.089 56.7011 262.643C40.4064 236.44 30.9658 208.553 30.9658 176.948Z" fill="#E42A53"/>
<path d="M83.8686 257.221C116.629 257.221 133.002 272.188 149.392 302.137C165.764 272.188 182.137 257.221 214.899 257.221C251.136 257.221 280.475 284.053 280.475 317.12C280.475 356.679 251.882 384.984 213.576 416.916C193.881 433.322 171.627 450.678 149.39 471.034C83.8669 411.136 18.3574 377.018 18.3574 317.12C18.3574 296.629 29.6285 278.544 46.8148 267.729C57.3604 261.102 70.123 257.221 83.8686 257.221Z" fill="#D30045"/>
<path d="M49.715 324.135C49.715 303.644 60.986 285.559 78.1723 274.744C88.7146 268.119 101.477 264.236 115.223 264.236C115.489 264.236 115.733 264.258 115.997 264.259C107.16 259.59 96.8043 257.219 83.8672 257.219C70.1215 257.219 57.3573 261.1 46.8167 267.727C29.6304 278.542 18.3594 296.627 18.3594 317.118C18.3594 377.016 83.8672 411.134 149.392 471.032C153.268 467.483 157.139 464.057 161.004 460.679C102.686 411.021 49.715 377.994 49.715 324.135Z" fill="#BF0448"/>
<path d="M402.3 249.135C400.531 249.135 398.746 248.584 397.222 247.44C393.478 244.632 392.719 239.32 395.527 235.576C437.756 179.275 411.224 123.899 410.073 121.569C408.005 117.379 409.712 112.296 413.895 110.218C418.088 108.137 423.153 109.83 425.241 114.006C426.592 116.704 457.754 180.858 409.087 245.745C407.422 247.966 404.877 249.135 402.3 249.135Z" fill="#E42A53"/>
</svg>
