<svg viewBox="0 0 49 64" fill="none" xmlns="http://www.w3.org/2000/svg">
<g clip-path="url(#clip0_152_811)">
<path fill-rule="evenodd" clip-rule="evenodd" d="M49 16.842V58.947C49 61.738 46.73 64 43.931 64H5.069C2.269 64 0 61.738 0 58.947V5.053C0 2.262 2.269 0 5.069 0H32.103L49 16.842Z" fill="#2D25DE"/>
<path fill-rule="evenodd" clip-rule="evenodd" d="M49.0001 15.899V17.995H35.1871C32.3271 17.995 31.0081 15.675 31.0081 12.814V0H33.1001L49.0001 15.899Z" fill="#91A8FF"/>
<path d="M22.5625 25C21.8059 25 21.2905 25.4224 20.625 25.9797L14.8125 30.7857H10.9375C9.87187 30.7857 9 31.6536 9 32.7143V44.2857C9 45.3464 9.87187 46.2143 10.9375 46.2143H14.8125L20.625 51.0203C21.2915 51.5786 21.8059 52 22.5625 52C23.7434 52 24.5 51.0511 24.5 50.0714V26.9286C24.5 25.9489 23.7434 25 22.5625 25ZM20.625 46.006L16.2123 42.3571H12.875V34.6429H16.2123L20.625 30.994V46.006ZM28.375 28.8571C27.1641 28.8571 26.4375 29.8668 26.4375 30.7857C26.4375 32.1569 28.375 33.4674 28.375 38.5C28.375 43.5326 26.4375 44.8431 26.4375 46.2143C26.4375 47.1333 27.1641 48.1429 28.375 48.1429C29.3593 48.1429 29.9492 47.6154 30.5847 46.2143C31.7753 43.5905 32.25 41.0766 32.25 38.5C32.25 35.9234 31.7753 33.4095 30.5847 30.7857C29.9492 29.3846 29.3593 28.8571 28.375 28.8571ZM37.2352 26.9286C36.4234 25.2208 35.6561 25 34.9751 25C33.8242 25 33.0376 25.9643 33.0376 26.9286C33.0376 28.5409 36.125 31.2978 36.125 38.5C36.125 45.7023 33.0366 48.4591 33.0366 50.0714C33.0366 51.0357 33.8242 52 34.9741 52C35.6552 52 36.4224 51.7792 37.2342 50.0714C38.1235 48.2036 40 44.4361 40 38.5C40 32.5639 38.1235 28.7974 37.2352 26.9286Z" fill="white"/>
</g>
<defs>
<clipPath id="clip0_152_811">
<rect width="49" height="64" fill="white"/>
</clipPath>
</defs>
</svg>