<svg width="112" height="112" viewBox="0 0 112 112" fill="none" xmlns="http://www.w3.org/2000/svg">
<path d="M96.5589 30.6764V104.785C96.5589 108.77 93.3262 112 89.3439 112H22.6564C18.671 112 15.4414 108.77 15.4414 104.785V7.21503C15.4412 3.22963 18.6708 0 22.6564 0H65.8825L96.5589 30.6764Z" fill="#E6E6E6"/>
<path d="M76.7387 56.2305H35.2581V60.8398H76.7387V56.2305Z" fill="black"/>
<path d="M76.7387 66.5244H35.2581V71.1337H76.7387V66.5244Z" fill="black"/>
<path d="M76.7387 76.8184H35.2581V81.4276H76.7387V76.8184Z" fill="black"/>
<path d="M64.7576 87.1128H35.2581V91.7221H64.7576V87.1128Z" fill="black"/>
<path d="M70.0679 30.0099L96.5589 40.9235V30.6764L81.5393 26.2417L70.0679 30.0099Z" fill="#CCCCCC"/>
<path d="M96.559 30.6764H73.0976C69.112 30.6764 65.8826 27.4468 65.8826 23.4614V0L96.559 30.6764Z" fill="#EEEEEE"/>
</svg>
