<svg width="116" height="116" viewBox="0 0 116 116" fill="none" xmlns="http://www.w3.org/2000/svg">
<path d="M100.799 11.1996V22.3996C100.799 24.453 99.1193 26.133 97.0659 26.133H55.9993C54.6926 26.133 53.4606 25.461 52.7886 24.3036L46.0686 13.1036C45.3962 11.9836 45.3593 10.5276 46.0313 9.37031C46.7033 8.17564 47.9353 7.46631 49.2793 7.46631H97.0659C99.1193 7.46631 100.799 9.14631 100.799 11.1996Z" fill="#FE9803"/>
<path d="M112 22.4V85.8667C112 87.92 110.32 89.6 108.267 89.6H3.73333C1.68 89.6 0 87.92 0 85.8667V3.73333C0 1.68 1.68 0 3.73333 0H44.8C46.1067 0 47.3387 0.671999 48.0107 1.82933L58.128 18.6667H108.267C110.32 18.6667 112 20.3467 112 22.4Z" fill="#FFC10A"/>
<g clip-path="url(#clip0_166_1583)">
<path d="M103.839 45.8026C91.7057 23.6763 63.9311 15.5758 41.8028 27.7103C19.6761 39.8452 11.5756 67.6198 23.709 89.7461C35.8452 111.874 63.6185 119.974 85.7469 107.841C107.874 95.7056 115.975 67.9317 103.839 45.8026ZM57.7885 88.1829C46.5333 85.0396 39.7646 73.0248 42.9081 61.769C46.0511 50.5147 58.0659 43.7444 69.3212 46.8877C80.576 50.0309 87.3453 62.047 84.2023 73.3013C81.059 84.5566 69.0433 91.3261 57.7885 88.1829Z" fill="#FAFAFA" stroke="black" stroke-opacity="0.05"/>
<path d="M84.7861 64.8711L109.047 61.5812C108.312 56.1966 106.609 50.8527 103.839 45.8025C101.049 40.7157 97.4251 36.3817 93.2408 32.8517L77.5717 51.3796C81.4974 54.8396 84.093 59.6715 84.7861 64.8711Z" fill="#E8393B" stroke="black" stroke-opacity="0.05"/>
<path d="M42.3896 70.6229L18.4462 73.8692C19.1829 79.2537 20.8854 84.598 23.655 89.6469C26.4454 94.7349 30.0684 99.1709 34.253 102.7L49.9491 84.0386C45.9034 80.65 43.1932 75.8372 42.3896 70.6229Z" fill="#E8393B" stroke="black" stroke-opacity="0.05"/>
<path d="M60.8421 46.3106L57.6029 22.4246C52.2183 23.1597 46.8739 24.8643 41.8256 27.634C36.7372 30.4238 32.4028 34.0472 28.8737 38.2318L47.2118 53.7408C50.6717 49.7037 55.5653 47.0274 60.8421 46.3106Z" fill="#E8393B" stroke="black" stroke-opacity="0.05"/>
<path d="M79.8718 81.3618C76.4818 85.2969 71.7302 87.9289 66.5929 88.7072L69.8924 113.05C75.2765 112.315 80.6213 110.67 85.6692 107.9C90.7566 105.11 95.4705 101.184 99 97L79.8718 81.3618Z" fill="#E8393B" stroke="black" stroke-opacity="0.05"/>
</g>
<defs>
<clipPath id="clip0_166_1583">
<rect width="97" height="97" fill="white" transform="translate(15 19)"/>
</clipPath>
</defs>
</svg>
