<svg viewBox="0 0 112 112" fill="none" xmlns="http://www.w3.org/2000/svg">
<path d="M96.5589 30.6764V104.785C96.5589 108.77 93.3262 112 89.3439 112H22.6564C18.671 112 15.4414 108.77 15.4414 104.785V7.21503C15.4412 3.22963 18.6708 0 22.6564 0H65.8825L96.5589 30.6764Z" fill="#518EF8"/>
<path d="M30.5001 68.0002H47.5001C48.2515 68.0002 48.9722 67.7017 49.5036 67.1703C50.0349 66.6389 50.3334 65.9183 50.3334 65.1668V48.1668C50.3334 47.4154 50.0349 46.6947 49.5036 46.1634C48.9722 45.632 48.2515 45.3335 47.5001 45.3335H30.5001C29.7486 45.3335 29.028 45.632 28.4966 46.1634C27.9653 46.6947 27.6667 47.4154 27.6667 48.1668V65.1668C27.6667 65.9183 27.9653 66.6389 28.4966 67.1703C29.028 67.7017 29.7486 68.0002 30.5001 68.0002ZM33.3334 51.0002H44.6667V62.3335H33.3334V51.0002ZM58.8334 56.6668H81.5001C82.2515 56.6668 82.9722 56.3683 83.5036 55.837C84.0349 55.3056 84.3334 54.5849 84.3334 53.8335C84.3334 53.082 84.0349 52.3614 83.5036 51.83C82.9722 51.2987 82.2515 51.0002 81.5001 51.0002H58.8334C58.082 51.0002 57.3613 51.2987 56.8299 51.83C56.2986 52.3614 56.0001 53.082 56.0001 53.8335C56.0001 54.5849 56.2986 55.3056 56.8299 55.837C57.3613 56.3683 58.082 56.6668 58.8334 56.6668ZM58.8334 85.0002H30.5001C29.7486 85.0002 29.028 85.2987 28.4966 85.83C27.9653 86.3614 27.6667 87.082 27.6667 87.8335C27.6667 88.5849 27.9653 89.3056 28.4966 89.837C29.028 90.3683 29.7486 90.6668 30.5001 90.6668H58.8334C59.5849 90.6668 60.3055 90.3683 60.8369 89.837C61.3682 89.3056 61.6667 88.5849 61.6667 87.8335C61.6667 87.082 61.3682 86.3614 60.8369 85.83C60.3055 85.2987 59.5849 85.0002 58.8334 85.0002ZM81.5001 73.6668H30.5001C29.7486 73.6668 29.028 73.9653 28.4966 74.4967C27.9653 75.028 27.6667 75.7487 27.6667 76.5002C27.6667 77.2516 27.9653 77.9723 28.4966 78.5036C29.028 79.035 29.7486 79.3335 30.5001 79.3335H81.5001C82.2515 79.3335 82.9722 79.035 83.5036 78.5036C84.0349 77.9723 84.3334 77.2516 84.3334 76.5002C84.3334 75.7487 84.0349 75.028 83.5036 74.4967C82.9722 73.9653 82.2515 73.6668 81.5001 73.6668ZM81.5001 62.3335H58.8334C58.082 62.3335 57.3613 62.632 56.8299 63.1634C56.2986 63.6947 56.0001 64.4154 56.0001 65.1668C56.0001 65.9183 56.2986 66.6389 56.8299 67.1703C57.3613 67.7017 58.082 68.0002 58.8334 68.0002H81.5001C82.2515 68.0002 82.9722 67.7017 83.5036 67.1703C84.0349 66.6389 84.3334 65.9183 84.3334 65.1668C84.3334 64.4154 84.0349 63.6947 83.5036 63.1634C82.9722 62.632 82.2515 62.3335 81.5001 62.3335Z" fill="white"/>
<path d="M70.0679 30.0099L96.5589 40.9235V30.6764L81.5393 26.2417L70.0679 30.0099Z" fill="#3A5BBC"/>
<path d="M96.559 30.6764H73.0976C69.112 30.6764 65.8826 27.4468 65.8826 23.4614V0L96.559 30.6764Z" fill="#ACD1FC"/>
</svg>
