<svg width="149" height="149" viewBox="0 0 149 149" fill="none" xmlns="http://www.w3.org/2000/svg">
<path d="M130.375 4.65625H18.625C10.9103 4.65625 4.65625 10.9103 4.65625 18.625V130.375C4.65625 138.09 10.9103 144.344 18.625 144.344H130.375C138.09 144.344 144.344 138.09 144.344 130.375V18.625C144.344 10.9103 138.09 4.65625 130.375 4.65625Z" fill="#EEF5FD"/>
<path d="M116.406 23.2812H32.5938C27.4506 23.2812 23.2812 27.4506 23.2812 32.5938V116.406C23.2812 121.549 27.4506 125.719 32.5938 125.719H116.406C121.549 125.719 125.719 121.549 125.719 116.406V32.5938C125.719 27.4506 121.549 23.2812 116.406 23.2812Z" fill="#96D7FF"/>
<path d="M98.1072 72.0788C97.6521 71.3969 97.0358 70.8379 96.3129 70.4512C95.59 70.0646 94.7829 69.8623 93.9631 69.8623C93.1433 69.8623 92.3362 70.0646 91.6133 70.4512C90.8905 70.8379 90.2741 71.3969 89.8191 72.0788L58.3894 121.063C57.9551 121.752 57.6981 122.537 57.6412 123.35C57.5843 124.162 57.7294 124.976 58.0634 125.719H116.406C118.876 125.719 121.245 124.738 122.991 122.991C124.738 121.245 125.719 118.876 125.719 116.406V115.149L98.1072 72.0788Z" fill="#84BF6F"/>
<path d="M48.9838 81.438C48.5201 80.7752 47.9035 80.234 47.1861 79.8603C46.4688 79.4866 45.6718 79.2915 44.863 79.2915C44.0541 79.2915 43.2572 79.4866 42.5398 79.8603C41.8224 80.234 41.2058 80.7752 40.7422 81.438L23.2812 109.375V116.406C23.2813 118.876 24.2624 121.245 26.0088 122.991C27.7553 124.738 30.1239 125.719 32.5938 125.719H72.8238C73.0181 125.551 73.1765 125.345 73.2894 125.114C73.7519 124.374 73.9971 123.518 73.9971 122.646C73.9971 121.773 73.7519 120.918 73.2894 120.178L48.9838 81.438Z" fill="#91E085"/>
<path d="M125.719 115.149V116.406C125.719 118.876 124.738 121.245 122.991 122.991C121.245 124.738 118.876 125.719 116.406 125.719H74.5V95.9654L89.8191 72.0788C90.2741 71.3969 90.8904 70.8379 91.6133 70.4512C92.3362 70.0646 93.1433 69.8623 93.9631 69.8623C94.7829 69.8623 95.59 70.0646 96.3129 70.4512C97.0358 70.8379 97.6521 71.3969 98.1072 72.0788L125.719 115.149Z" fill="#84BF6F"/>
<path d="M65.1875 65.979C72.9022 65.979 79.1562 59.725 79.1562 52.0103C79.1562 44.2955 72.9022 38.0415 65.1875 38.0415C57.4728 38.0415 51.2188 44.2955 51.2188 52.0103C51.2188 59.725 57.4728 65.979 65.1875 65.979Z" fill="#FFC661"/>
</svg>
