<svg width="605" height="605" viewBox="0 0 605 605" fill="none" xmlns="http://www.w3.org/2000/svg">
<path d="M521.59 165.707V566.026C521.59 587.552 504.127 605 482.616 605H122.384C100.856 605 83.4102 587.552 83.4102 566.026V38.974C83.4091 17.4458 100.855 0 122.384 0H355.882L521.59 165.707Z" fill="#2669DE"/>
<path d="M164.755 367.323H256.585C260.644 367.323 264.537 365.711 267.407 362.841C270.277 359.97 271.89 356.078 271.89 352.018V260.188C271.89 256.129 270.277 252.236 267.407 249.366C264.537 246.495 260.644 244.883 256.585 244.883H164.755C160.695 244.883 156.803 246.495 153.932 249.366C151.062 252.236 149.449 256.129 149.449 260.188V352.018C149.449 356.078 151.062 359.97 153.932 362.841C156.803 365.711 160.695 367.323 164.755 367.323ZM180.06 275.493H241.28V336.713H180.06V275.493ZM317.805 306.103H440.246C444.305 306.103 448.198 304.49 451.068 301.62C453.938 298.75 455.551 294.857 455.551 290.798C455.551 286.739 453.938 282.846 451.068 279.976C448.198 277.106 444.305 275.493 440.246 275.493H317.805C313.746 275.493 309.853 277.106 306.983 279.976C304.113 282.846 302.5 286.739 302.5 290.798C302.5 294.857 304.113 298.75 306.983 301.62C309.853 304.49 313.746 306.103 317.805 306.103ZM317.805 459.154H164.755C160.695 459.154 156.803 460.766 153.932 463.636C151.062 466.507 149.449 470.399 149.449 474.459C149.449 478.518 151.062 482.411 153.932 485.281C156.803 488.151 160.695 489.764 164.755 489.764H317.805C321.865 489.764 325.757 488.151 328.628 485.281C331.497 482.411 333.11 478.518 333.11 474.459C333.11 470.399 331.497 466.507 328.628 463.636C325.757 460.766 321.865 459.154 317.805 459.154ZM440.246 397.933H164.755C160.695 397.933 156.803 399.546 153.932 402.416C151.062 405.286 149.449 409.179 149.449 413.239C149.449 417.298 151.062 421.191 153.932 424.061C156.803 426.931 160.695 428.544 164.755 428.544H440.246C444.305 428.544 448.198 426.931 451.068 424.061C453.938 421.191 455.551 417.298 455.551 413.239C455.551 409.179 453.938 405.286 451.068 402.416C448.198 399.546 444.305 397.933 440.246 397.933ZM440.246 336.713H317.805C313.746 336.713 309.853 338.326 306.983 341.196C304.113 344.066 302.5 347.959 302.5 352.018C302.5 356.078 304.113 359.97 306.983 362.841C309.853 365.711 313.746 367.323 317.805 367.323H440.246C444.305 367.323 448.198 365.711 451.068 362.841C453.938 359.97 455.551 356.078 455.551 352.018C455.551 347.959 453.938 344.066 451.068 341.196C448.198 338.326 444.305 336.713 440.246 336.713Z" fill="white"/>
<path d="M378.492 162.107L521.591 221.06V165.707L440.458 141.752L378.492 162.107Z" fill="#3A5BBC"/>
<path d="M521.59 165.707H394.857C373.327 165.707 355.883 148.262 355.883 126.733V0L521.59 165.707Z" fill="#80AADC"/>
</svg>
