<svg width="112" height="112" viewBox="0 0 112 112" fill="none" xmlns="http://www.w3.org/2000/svg">
<path d="M96.5589 30.6764V104.785C96.5589 108.77 93.3262 112 89.3439 112H22.6564C18.671 112 15.4414 108.77 15.4414 104.785V7.21503C15.4412 3.22963 18.6708 0 22.6564 0H65.8825L96.5589 30.6764Z" fill="#FF9800"/>
<path d="M70.0679 30.0099L96.5589 40.9235V30.6764L81.5393 26.2417L70.0679 30.0099Z" fill="#A26100"/>
<path d="M96.559 30.6764H73.0976C69.112 30.6764 65.8826 27.4468 65.8826 23.4614V0L96.559 30.6764Z" fill="#FFD180"/>
<g clip-path="url(#clip0_153_859)">
<path d="M77.8438 44.1562H57.5312V40.0937C57.5312 39.555 57.3172 39.0384 56.9363 38.6574C56.5554 38.2765 56.0387 38.0625 55.5 38.0625C54.9613 38.0625 54.4446 38.2765 54.0637 38.6574C53.6828 39.0384 53.4688 39.555 53.4688 40.0937V44.1562H33.1562C32.0788 44.1562 31.0455 44.5843 30.2836 45.3461C29.5218 46.108 29.0938 47.1413 29.0938 48.2187V78.6875C29.0938 79.7649 29.5218 80.7982 30.2836 81.5601C31.0455 82.322 32.0788 82.75 33.1562 82.75H43.1602L37.6758 89.6055C37.4372 89.9034 37.2874 90.2626 37.2436 90.6418C37.1998 91.021 37.2637 91.4049 37.428 91.7494C37.5923 92.094 37.8504 92.3852 38.1726 92.5898C38.4949 92.7944 38.8683 92.9041 39.25 92.9062C39.5532 92.9083 39.8528 92.8406 40.1257 92.7086C40.3987 92.5765 40.6376 92.3835 40.8242 92.1445L48.3398 82.75H62.6602L70.1758 92.1445C70.3624 92.3835 70.6013 92.5765 70.8743 92.7086C71.1472 92.8406 71.4468 92.9083 71.75 92.9062C72.1317 92.9041 72.5051 92.7944 72.8274 92.5898C73.1496 92.3852 73.4077 92.094 73.572 91.7494C73.7363 91.4049 73.8002 91.021 73.7564 90.6418C73.7126 90.2626 73.5628 89.9034 73.3242 89.6055L67.8398 82.75H77.8438C78.9212 82.75 79.9545 82.322 80.7164 81.5601C81.4782 80.7982 81.9062 79.7649 81.9062 78.6875V48.2187C81.9062 47.1413 81.4782 46.108 80.7164 45.3461C79.9545 44.5843 78.9212 44.1562 77.8438 44.1562ZM49.4062 70.5625C49.4062 71.1012 49.1922 71.6179 48.8113 71.9988C48.4304 72.3797 47.9137 72.5937 47.375 72.5937C46.8363 72.5937 46.3196 72.3797 45.9387 71.9988C45.5578 71.6179 45.3438 71.1012 45.3438 70.5625V64.4687C45.3438 63.93 45.5578 63.4134 45.9387 63.0324C46.3196 62.6515 46.8363 62.4375 47.375 62.4375C47.9137 62.4375 48.4304 62.6515 48.8113 63.0324C49.1922 63.4134 49.4062 63.93 49.4062 64.4687V70.5625ZM57.5312 70.5625C57.5312 71.1012 57.3172 71.6179 56.9363 71.9988C56.5554 72.3797 56.0387 72.5937 55.5 72.5937C54.9613 72.5937 54.4446 72.3797 54.0637 71.9988C53.6828 71.6179 53.4688 71.1012 53.4688 70.5625V60.4062C53.4688 59.8675 53.6828 59.3509 54.0637 58.9699C54.4446 58.589 54.9613 58.375 55.5 58.375C56.0387 58.375 56.5554 58.589 56.9363 58.9699C57.3172 59.3509 57.5312 59.8675 57.5312 60.4062V70.5625ZM65.6562 70.5625C65.6562 71.1012 65.4422 71.6179 65.0613 71.9988C64.6804 72.3797 64.1637 72.5937 63.625 72.5937C63.0863 72.5937 62.5696 72.3797 62.1887 71.9988C61.8078 71.6179 61.5938 71.1012 61.5938 70.5625V56.3437C61.5938 55.805 61.8078 55.2884 62.1887 54.9074C62.5696 54.5265 63.0863 54.3125 63.625 54.3125C64.1637 54.3125 64.6804 54.5265 65.0613 54.9074C65.4422 55.2884 65.6562 55.805 65.6562 56.3437V70.5625Z" fill="white" fill-opacity="0.7"/>
</g>
<defs>
<clipPath id="clip0_153_859">
<rect width="65" height="65" fill="white" transform="translate(23 34)"/>
</clipPath>
</defs>
</svg>
