<svg width="360" height="360" viewBox="0 0 360 360" fill="none" xmlns="http://www.w3.org/2000/svg">
<path d="M315 165.25V199C315 205.188 309.937 210.25 303.75 210.25H180C176.062 210.25 172.35 208.225 170.325 204.738L150.075 170.988C148.049 167.613 147.937 163.225 149.962 159.738C151.987 156.138 155.7 154 159.75 154H303.75C309.937 154 315 159.062 315 165.25Z" fill="#FE9803"/>
<g clip-path="url(#clip0_500_1524)">
<path d="M277.396 26H81.6039C74.0907 26 68 32.0907 68 39.6039V235.396C68 242.909 74.0907 249 81.6039 249H277.396C284.909 249 291 242.909 291 235.396V39.6039C291 32.0907 284.909 26 277.396 26Z" fill="#F9F9F9"/>
<path d="M270.529 45.7715H88.4707V208.324H270.529V45.7715Z" fill="#C8EFFE"/>
<path d="M157.691 118.903C157.691 113.119 159.989 107.572 164.079 103.482C168.169 99.3915 173.716 97.0938 179.501 97.0938C185.285 97.0938 190.832 99.3915 194.922 103.482C199.012 107.572 201.31 113.119 201.31 118.903" fill="#F9ED32"/>
<path d="M179.5 87H179.5C178.812 87 178.254 87.5579 178.254 88.2461V93.2314C178.254 93.9196 178.812 94.4775 179.5 94.4775H179.5C180.189 94.4775 180.747 93.9196 180.747 93.2314V88.2461C180.747 87.5579 180.189 87 179.5 87Z" fill="#F9ED32"/>
<path d="M156.94 96.3432L156.94 96.3435C156.453 96.8301 156.453 97.6191 156.94 98.1057L160.465 101.631C160.951 102.117 161.74 102.117 162.227 101.631L162.227 101.631C162.714 101.144 162.714 100.355 162.227 99.8683L158.702 96.3432C158.216 95.8565 157.427 95.8565 156.94 96.3432Z" fill="#F9ED32"/>
<path d="M147.596 112.162V112.162C147.596 112.85 148.154 113.408 148.842 113.408H153.827C154.515 113.408 155.073 112.85 155.073 112.162V112.162C155.073 111.473 154.515 110.916 153.827 110.916H148.842C148.154 110.916 147.596 111.473 147.596 112.162Z" fill="#F9ED32"/>
<path d="M211.404 112.163V112.162C211.404 111.474 210.846 110.916 210.158 110.916H205.173C204.485 110.916 203.927 111.474 203.927 112.162V112.163C203.927 112.851 204.485 113.409 205.173 113.409H210.158C210.846 113.409 211.404 112.851 211.404 112.163Z" fill="#F9ED32"/>
<path d="M202.059 96.3424L202.059 96.3421C201.572 95.8554 200.783 95.8554 200.297 96.3421L196.771 99.8672C196.285 100.354 196.285 101.143 196.771 101.629L196.772 101.63C197.258 102.116 198.047 102.116 198.534 101.63L202.059 98.1046C202.546 97.618 202.546 96.829 202.059 96.3424Z" fill="#F9ED32"/>
<path d="M270.529 202.031H88.4707V113.786C99.7949 118.577 266.772 111.895 270.529 112.043V202.031Z" fill="#6EB8EA"/>
<path d="M270.529 189.559H88.4707V119C165.092 121.172 155.371 148.818 270.529 155.757V189.559Z" fill="#F9D1A0"/>
</g>
<path d="M348.75 194.25V350.792C348.75 355.856 343.688 360 337.5 360H22.5C16.3125 360 11.25 355.856 11.25 350.792V148.208C11.25 143.144 16.3125 139 22.5 139H146.25C150.187 139 153.9 140.657 155.925 143.512L186.412 185.042H337.5C343.688 185.042 348.75 189.185 348.75 194.25Z" fill="#FFC10A"/>
<defs>
<clipPath id="clip0_500_1524">
<rect width="223" height="223" fill="white" transform="translate(68 26)"/>
</clipPath>
</defs>
</svg>
