<svg viewBox="0 0 512 512" fill="none" xmlns="http://www.w3.org/2000/svg">
<path d="M484.973 122.808L452.288 451.017H59.7119L33.3789 129.16L256 253.802L484.973 122.808Z" fill="#F2F2F2"/>
<path d="M473.886 60.9829L256 265.659L38.1138 60.9829H256H473.886Z" fill="#F2F2F2"/>
<line x1="259.619" y1="294.785" x2="60.6194" y2="451.785" stroke="#DEDEDE" stroke-width="2"/>
<line x1="253.615" y1="295.211" x2="452.417" y2="450.228" stroke="#DEDEDE" stroke-width="2"/>
<path d="M59.712 155.493V451.017H24.139C10.812 451.017 0 440.206 0 426.878V111.967L39 113.03L59.712 155.493Z" fill="#5094E3"/>
<path d="M512 111.967V426.879C512 440.206 501.188 451.018 487.848 451.018H452.288V155.493L471.98 108.968L512 111.967Z" fill="#2A78D3"/>
<path d="M512 85.1219V111.967L452.288 155.493L256 298.561L59.712 155.493L0 111.967V85.1219C0 71.7949 10.812 60.9829 24.139 60.9829H38.114L256 219.792L473.886 60.9829H487.848C501.188 60.9829 512 71.7939 512 85.1219Z" fill="#5094E3"/>
<path d="M59.712 155.493L0 146.235V111.967L59.712 155.493Z" fill="#2A78D3"/>
</svg>
