<svg width="1024" height="1024" viewBox="0 0 1024 1024" fill="none" xmlns="http://www.w3.org/2000/svg">
<g clip-path="url(#clip0_290_1739)">
<path d="M919.36 7.66992H104.63C51.0804 7.66992 7.66992 51.0804 7.66992 104.63V919.36C7.66992 972.909 51.0804 1016.32 104.63 1016.32H919.36C972.909 1016.32 1016.32 972.909 1016.32 919.36V104.63C1016.32 51.0804 972.909 7.66992 919.36 7.66992Z" fill="#00A4FF" stroke="#0080C8" stroke-width="15"/>
<path d="M134.641 667.381H889.341C889.341 667.381 850.921 918.381 511.871 918.381C172.821 918.381 134.641 667.381 134.641 667.381Z" fill="#FF00B7"/>
<path d="M289.689 868.651C212.589 832.241 154.389 758.161 137.279 674.651C195.133 671.484 253.039 669.334 310.999 668.201C351.759 667.411 401.809 659.261 441.619 668.051C400.619 689.191 363.889 704.841 334.619 743.181C320.671 761.433 309.665 781.756 301.999 803.411C299.469 810.411 282.629 865.321 289.689 868.651Z" fill="black"/>
<path d="M503.718 809.141C502.718 816.651 502.898 826.141 509.718 829.541C514.778 832.101 521.208 829.541 524.888 825.191C528.568 820.841 530.168 815.191 531.838 809.781C549.378 751.921 584.508 706.841 628.338 666.631C602.508 669.161 569.798 664.851 551.108 686.321C523.398 718.101 509.338 768.321 503.718 809.141Z" fill="black"/>
<path d="M259.001 781.411C281.811 781.411 302.851 721.721 310.081 676.461H216.471C220.281 721.351 236.781 781.411 259.001 781.411Z" fill="white"/>
<path d="M764.998 781.411C787.298 781.411 803.768 721.351 807.538 676.461H713.898C721.158 721.721 742.228 781.411 764.998 781.411Z" fill="white"/>
<path d="M511.871 935.621C330.001 935.621 232.551 864.001 182.811 803.881C128.451 738.201 118.001 672.731 117.561 670.001L114.561 650.131H909.461L906.461 670.011C906.031 672.771 895.461 738.241 841.091 803.901C791.261 864.001 693.721 935.621 511.871 935.621ZM156.461 684.621C173.341 741.901 244.331 901.041 511.871 901.041C776.511 901.041 849.591 741.561 867.231 684.621H156.461Z" fill="black"/>
<path d="M512.001 581.189C611.937 581.189 692.951 500.175 692.951 400.239C692.951 300.303 611.937 219.289 512.001 219.289C412.065 219.289 331.051 300.303 331.051 400.239C331.051 500.175 412.065 581.189 512.001 581.189Z" fill="#00A397"/>
<path d="M512.001 493.439C563.474 493.439 605.201 451.712 605.201 400.239C605.201 348.766 563.474 307.039 512.001 307.039C460.528 307.039 418.801 348.766 418.801 400.239C418.801 451.712 460.528 493.439 512.001 493.439Z" fill="black"/>
<path d="M590.502 400.961C619.127 400.961 642.332 377.756 642.332 349.131C642.332 320.506 619.127 297.301 590.502 297.301C561.877 297.301 538.672 320.506 538.672 349.131C538.672 377.756 561.877 400.961 590.502 400.961Z" fill="white"/>
<path d="M509.56 120C817.92 120 837.93 416.43 837.93 416.43C837.93 416.43 859.75 578.28 748.82 578.28H493.77" fill="white"/>
<path d="M514.439 120C206.079 120 186.069 416.43 186.069 416.43C186.069 416.43 164.249 578.28 275.179 578.28H530.239" fill="white"/>
<path d="M512.001 581.189C611.937 581.189 692.951 500.175 692.951 400.239C692.951 300.303 611.937 219.289 512.001 219.289C412.065 219.289 331.051 300.303 331.051 400.239C331.051 500.175 412.065 581.189 512.001 581.189Z" fill="#00A397"/>
<path d="M512.001 493.439C563.474 493.439 605.201 451.712 605.201 400.239C605.201 348.766 563.474 307.039 512.001 307.039C460.528 307.039 418.801 348.766 418.801 400.239C418.801 451.712 460.528 493.439 512.001 493.439Z" fill="black"/>
<path d="M590.502 400.961C619.127 400.961 642.332 377.756 642.332 349.131C642.332 320.506 619.127 297.301 590.502 297.301C561.877 297.301 538.672 320.506 538.672 349.131C538.672 377.756 561.877 400.961 590.502 400.961Z" fill="white"/>
<path d="M855.11 414.571C853.68 398.211 823.3 105.871 514.44 102.791V102.721C513.62 102.721 512.82 102.721 512 102.721C511.18 102.721 510.39 102.721 509.56 102.721V102.791C200.73 105.871 170.33 398.181 168.89 414.561C167.89 422.711 157.35 513.911 200.89 563.711C219.35 584.831 244.35 595.541 275.18 595.541H748.82C779.65 595.541 804.64 584.831 823.11 563.711C866.65 513.911 856.15 422.721 855.11 414.571ZM797.11 540.971C785.32 554.451 769.53 560.971 748.82 560.971H275.18C254.5 560.971 238.72 554.441 226.94 540.971C192.61 501.791 203.08 419.491 203.19 418.681L203.3 417.551C204.1 406.141 226.18 138.781 512 137.251C797.82 138.781 819.89 406.141 820.7 417.531L820.81 418.681C823.9 441.651 825.67 508.301 797.11 541.001V540.971Z" fill="black"/>
</g>
<defs>
<clipPath id="clip0_290_1739">
<rect width="1024" height="1024" fill="white"/>
</clipPath>
</defs>
</svg>
