<svg width="116" height="116" viewBox="0 0 116 116" fill="none" xmlns="http://www.w3.org/2000/svg">
<rect y="7" width="116" height="84" rx="5" fill="#E9E7E0"/>
<g clip-path="url(#clip0_302_1525)">
<rect x="6.30444" y="12.0908" width="103.391" height="72.5455" rx="5" fill="#3D88BE"/>
<rect width="157.537" height="79.6136" transform="matrix(0.816217 -0.577745 0.57054 0.82127 -53.3813 30.3491)" fill="white" fill-opacity="0.2"/>
</g>
<rect x="78.5" y="72.5" width="33" height="33" rx="16.5" fill="#3E4972"/>
<rect x="78.5" y="72.5" width="33" height="33" rx="16.5" stroke="#7A98C7" stroke-width="3"/>
<path d="M92.5282 78.516C92.5708 78.367 92.6594 78.2362 92.7805 78.1432C92.9016 78.0501 93.0489 77.9999 93.2001 78H98.7998C98.9106 78.0001 99.0199 78.0272 99.1185 78.0791C99.2172 78.131 99.3024 78.2063 99.3672 78.2986C99.432 78.391 99.4745 78.4978 99.4912 78.6103C99.5079 78.7228 99.4984 78.8378 99.4633 78.9458L96.9715 86.6245H102.3C102.431 86.6244 102.559 86.6621 102.67 86.7333C102.782 86.8045 102.871 86.9063 102.929 87.0272C102.986 87.1481 103.01 87.2832 102.996 87.4171C102.983 87.5509 102.933 87.6782 102.853 87.7845L93.0532 100.721C92.9528 100.854 92.81 100.947 92.6498 100.983C92.4897 101.019 92.3222 100.997 92.1767 100.919C92.0312 100.841 91.9169 100.714 91.8537 100.558C91.7905 100.403 91.7825 100.229 91.831 100.069L94.3523 91.6554H89.7004C89.5915 91.6555 89.4842 91.6295 89.3869 91.5795C89.2895 91.5296 89.2049 91.457 89.1397 91.3675C89.0744 91.2781 89.0304 91.1743 89.0111 91.0643C88.9918 90.9543 88.9977 90.8413 89.0284 90.7341L92.5282 78.516Z" fill="#FFC10A"/>
<path d="M40 107.167C40 99.3426 46.3426 93 54.1667 93H61.8333C69.6574 93 76 99.3426 76 107.167V107.167C76 108.731 74.7315 110 73.1667 110H42.8333C41.2685 110 40 108.731 40 107.167V107.167Z" fill="#E9E7E0"/>
<defs>
<clipPath id="clip0_302_1525">
<rect x="6.30444" y="12.0908" width="103.391" height="72.5455" rx="5" fill="white"/>
</clipPath>
</defs>
</svg>
