<svg viewBox="0 0 450 449" fill="none" xmlns="http://www.w3.org/2000/svg">
<rect x="15" y="266" width="168" height="168" fill="#D2AD28"/>
<rect x="182" y="350" width="252" height="84" fill="#D22828"/>
<rect x="268" y="265" width="85" height="85" fill="#D22828"/>
<rect x="266" y="181" width="168" height="84" fill="#2862D2"/>
<rect x="349" y="265" width="85" height="85" fill="#2862D2"/>
<rect x="100" y="97" width="168" height="84" fill="#37D111"/>
<rect x="183" y="180" width="85" height="85" fill="#37D111"/>
<rect x="100" y="12" width="85" height="85" fill="#37D111"/>
<path d="M434.201 180L434.201 434.5H182.5L434.201 180Z" fill="black" fill-opacity="0.1"/>
<path d="M434.201 180L434.201 434.5H182.5L434.201 180Z" fill="black" fill-opacity="0.1"/>
<path d="M182 265L182 434H16L182 265Z" fill="black" fill-opacity="0.1"/>
<path d="M182 265L182 434H16L182 265Z" fill="black" fill-opacity="0.1"/>
<path d="M268 97L268 182H183L268 97Z" fill="black" fill-opacity="0.1"/>
<path d="M268 97L268 182H183L268 97Z" fill="black" fill-opacity="0.1"/>
<path d="M268 182L268 265H183V182H268Z" fill="black" fill-opacity="0.1"/>
<path d="M268 182L268 265H183V182H268Z" fill="black" fill-opacity="0.1"/>
</svg>
